<svg width="48" height="48" viewBox="0 0 48 48" fill="none" xmlns="http://www.w3.org/2000/svg">
  <rect x="1" y="1" width="46" height="46" rx="15" fill="#171A20"/>
  <path d="M14 15.5H24.4C29.1 15.5 32 17.8 32 21.4C32 23.6 30.8 25.3 28.8 26.2C31.4 27 33 28.9 33 31.5C33 35.6 29.7 38.5 24.6 38.5H14V15.5ZM23.8 24.2C26.1 24.2 27.4 23.2 27.4 21.5C27.4 19.9 26.1 19 23.8 19H18.6V24.2H23.8ZM24.2 35C26.8 35 28.3 33.8 28.3 31.8C28.3 29.8 26.8 28.7 24.2 28.7H18.6V35H24.2Z" fill="white"/>
  <path d="M12 10H36" stroke="#8E80FF" stroke-width="3" stroke-linecap="round"/>
</svg>
